<?xml version="1.0" encoding="UTF-8"?>
<!DOCTYPE svg
PUBLIC "-//W3C//DTD SVG 1.1//EN"
       "http://www.w3.org/Graphics/SVG/1.1/DTD/svg11.dtd">
<svg viewBox="89 83 676 406" width="587px" height="323px" xmlns="http://www.w3.org/2000/svg" version="1.1">
   <line x1="454" y1="196" x2="444" y2="196" style="stroke:#c00;stroke-width:1;"/>
   <line x1="277" y1="301" x2="267" y2="301" style="stroke:#c00;stroke-width:1;"/>
   <line x1="444" y1="196" x2="277" y2="301" style="stroke:#c00;stroke-width:1;"/>
   <line x1="446.5" y1="196" x2="450.03553390593" y2="199.53553390593" style="stroke:#c00;stroke-width:2;"/>
   <line x1="446.5" y1="196" x2="450.03553390593" y2="192.46446609407" style="stroke:#c00;stroke-width:2;"/>
   <line x1="272" y1="301" x2="275.53553390593" y2="304.53553390593" style="stroke:#c00;stroke-width:2;"/>
   <line x1="272" y1="301" x2="275.53553390593" y2="297.46446609407" style="stroke:#c00;stroke-width:2;"/>
   <line x1="454" y1="176" x2="444" y2="176" style="stroke:#0bf;stroke-width:1;"/>
   <line x1="246" y1="128" x2="236" y2="128" style="stroke:#0bf;stroke-width:1;"/>
   <line x1="444" y1="176" x2="246" y2="128" style="stroke:#0bf;stroke-width:1;"/>
   <line x1="446.5" y1="176" x2="450.03553390593" y2="179.53553390593" style="stroke:#0bf;stroke-width:2;"/>
   <line x1="446.5" y1="176" x2="450.03553390593" y2="172.46446609407" style="stroke:#0bf;stroke-width:2;"/>
   <line x1="241" y1="128" x2="244.53553390593" y2="131.53553390593" style="stroke:#0bf;stroke-width:2;"/>
   <line x1="241" y1="128" x2="244.53553390593" y2="124.46446609407" style="stroke:#0bf;stroke-width:2;"/>
   <line x1="468" y1="355" x2="458" y2="355" style="stroke:#333;stroke-width:1;"/>
   <line x1="246" y1="128" x2="236" y2="128" style="stroke:#333;stroke-width:1;"/>
   <line x1="458" y1="355" x2="246" y2="128" style="stroke:#333;stroke-width:1;"/>
   <line x1="460.5" y1="355" x2="464.03553390593" y2="358.53553390593" style="stroke:#333;stroke-width:2;"/>
   <line x1="460.5" y1="355" x2="464.03553390593" y2="351.46446609407" style="stroke:#333;stroke-width:2;"/>
   <line x1="241" y1="128" x2="244.53553390593" y2="131.53553390593" style="stroke:#333;stroke-width:2;"/>
   <line x1="241" y1="128" x2="244.53553390593" y2="124.46446609407" style="stroke:#333;stroke-width:2;"/>
   <line x1="468" y1="375" x2="458" y2="375" style="stroke:#cb0;stroke-width:1;"/>
   <line x1="277" y1="301" x2="267" y2="301" style="stroke:#cb0;stroke-width:1;"/>
   <line x1="458" y1="375" x2="277" y2="301" style="stroke:#cb0;stroke-width:1;"/>
   <line x1="460.5" y1="375" x2="464.03553390593" y2="378.53553390593" style="stroke:#cb0;stroke-width:2;"/>
   <line x1="460.5" y1="375" x2="464.03553390593" y2="371.46446609407" style="stroke:#cb0;stroke-width:2;"/>
   <line x1="272" y1="301" x2="275.53553390593" y2="304.53553390593" style="stroke:#cb0;stroke-width:2;"/>
   <line x1="272" y1="301" x2="275.53553390593" y2="297.46446609407" style="stroke:#cb0;stroke-width:2;"/>
   <rect width="126" height="20" x="110" y="98" style="fill:#007;stroke:black;"/>
   <text width="126" height="20" x="115" y="112" style="fill:#fff;" font-family="Arial" font-size="16px"> special_lectures</text>
   <rect width="126" height="20" x="110" y="118" style="fill:#aea;stroke:black;"/>
   <text width="126" height="20" x="115" y="132" style="fill:black;" font-family="Arial" font-size="16px">id</text>
   <rect width="126" height="20" x="110" y="138" style="fill:none;stroke:black;"/>
   <text width="126" height="20" x="115" y="152" style="fill:black;" font-family="Arial" font-size="16px">date_created</text>
   <rect width="126" height="20" x="110" y="158" style="fill:none;stroke:black;"/>
   <text width="126" height="20" x="115" y="172" style="fill:black;" font-family="Arial" font-size="16px">title</text>
   <rect width="126" height="20" x="110" y="178" style="fill:none;stroke:black;"/>
   <text width="126" height="20" x="115" y="192" style="fill:black;" font-family="Arial" font-size="16px">begin_date</text>
   <rect width="126" height="20" x="110" y="198" style="fill:none;stroke:black;"/>
   <text width="126" height="20" x="115" y="212" style="fill:black;" font-family="Arial" font-size="16px">student_capacity</text>
   <rect width="207" height="20" x="454" y="106" style="fill:#007;stroke:black;"/>
   <text width="207" height="20" x="459" y="120" style="fill:#fff;" font-family="Arial" font-size="16px"> special_lectures_applications</text>
   <rect width="207" height="20" x="454" y="126" style="fill:#aea;stroke:black;"/>
   <text width="207" height="20" x="459" y="140" style="fill:black;" font-family="Arial" font-size="16px">id</text>
   <rect width="207" height="20" x="454" y="146" style="fill:none;stroke:black;"/>
   <text width="207" height="20" x="459" y="160" style="fill:black;" font-family="Arial" font-size="16px">date_created</text>
   <rect width="207" height="20" x="454" y="166" style="fill:none;stroke:black;"/>
   <text width="207" height="20" x="459" y="180" style="fill:black;" font-family="Arial" font-size="16px">special_lecture_id</text>
   <rect width="207" height="20" x="454" y="186" style="fill:none;stroke:black;"/>
   <text width="207" height="20" x="459" y="200" style="fill:black;" font-family="Arial" font-size="16px">user_id</text>
   <rect width="207" height="20" x="454" y="206" style="fill:none;stroke:black;"/>
   <text width="207" height="20" x="459" y="220" style="fill:black;" font-family="Arial" font-size="16px">status</text>
   <rect width="186" height="20" x="468" y="285" style="fill:#007;stroke:black;"/>
   <text width="186" height="20" x="473" y="299" style="fill:#fff;" font-family="Arial" font-size="16px"> special_lectures_students</text>
   <rect width="186" height="20" x="468" y="305" style="fill:#aea;stroke:black;"/>
   <text width="186" height="20" x="473" y="319" style="fill:black;" font-family="Arial" font-size="16px">id</text>
   <rect width="186" height="20" x="468" y="325" style="fill:none;stroke:black;"/>
   <text width="186" height="20" x="473" y="339" style="fill:black;" font-family="Arial" font-size="16px">date_created</text>
   <rect width="186" height="20" x="468" y="345" style="fill:none;stroke:black;"/>
   <text width="186" height="20" x="473" y="359" style="fill:black;" font-family="Arial" font-size="16px">special_lecture_id</text>
   <rect width="186" height="20" x="468" y="365" style="fill:none;stroke:black;"/>
   <text width="186" height="20" x="473" y="379" style="fill:black;" font-family="Arial" font-size="16px">user_id</text>
   <rect width="163" height="20" x="104" y="271" style="fill:#007;stroke:black;"/>
   <text width="163" height="20" x="109" y="285" style="fill:#fff;" font-family="Arial" font-size="16px"> special_lectures_users</text>
   <rect width="163" height="20" x="104" y="291" style="fill:#aea;stroke:black;"/>
   <text width="163" height="20" x="109" y="305" style="fill:black;" font-family="Arial" font-size="16px">id</text>
   <rect width="163" height="20" x="104" y="311" style="fill:none;stroke:black;"/>
   <text width="163" height="20" x="109" y="325" style="fill:black;" font-family="Arial" font-size="16px">date_created</text>
   <rect width="163" height="20" x="104" y="331" style="fill:none;stroke:black;"/>
   <text width="163" height="20" x="109" y="345" style="fill:black;" font-family="Arial" font-size="16px">name</text>
   <rect width="163" height="20" x="104" y="351" style="fill:none;stroke:black;"/>
   <text width="163" height="20" x="109" y="365" style="fill:black;" font-family="Arial" font-size="16px">phone_number</text>
   <rect width="163" height="20" x="104" y="371" style="fill:none;stroke:black;"/>
   <text width="163" height="20" x="109" y="385" style="fill:black;" font-family="Arial" font-size="16px">email</text>
</svg>
